<?xml version="1.0" encoding="UTF-8" standalone="no"?>
<!-- Created with Inkscape (http://www.inkscape.org/) -->

<svg
   width="100pt"
   height="100pt"
   viewBox="0 0 35.277779 35.277777"
   version="1.1"
   id="svg5"
   inkscape:version="1.1 (ce6663b3b7, 2021-05-25)"
   sodipodi:docname="three.svg"
   xmlns:inkscape="http://www.inkscape.org/namespaces/inkscape"
   xmlns:sodipodi="http://sodipodi.sourceforge.net/DTD/sodipodi-0.dtd"
   xmlns="http://www.w3.org/2000/svg"
   xmlns:svg="http://www.w3.org/2000/svg">
  <sodipodi:namedview
     id="namedview7"
     pagecolor="#616b6e"
     bordercolor="#eeeeee"
     borderopacity="1"
     inkscape:pageshadow="0"
     inkscape:pageopacity="0"
     inkscape:pagecheckerboard="false"
     inkscape:document-units="pt"
     showgrid="false"
     units="pt"
     width="100pt"
     showguides="true"
     showborder="true"
     inkscape:showpageshadow="false"
     borderlayer="false"
     inkscape:zoom="4.6138717"
     inkscape:cx="74.557772"
     inkscape:cy="65.34642"
     inkscape:window-width="1848"
     inkscape:window-height="1016"
     inkscape:window-x="72"
     inkscape:window-y="27"
     inkscape:window-maximized="1"
     inkscape:current-layer="layer1" />
  <defs
     id="defs2">
    <rect
       x="8.8823437"
       y="11.176041"
       width="97.196373"
       height="45.69164"
       id="rect8110" />
    <rect
       x="71.1037"
       y="8.6469801"
       width="61.993361"
       height="52.760803"
       id="rect4602" />
  </defs>
  <g
     inkscape:label="Layer 1"
     inkscape:groupmode="layer"
     id="layer1">
    <ellipse
       style="fill:#ffffff;fill-opacity:1;stroke-width:0.352777"
       id="path1081"
       cx="11.592002"
       cy="12.883632"
       rx="5.9759226"
       ry="6.1007037" />
    <path
       style="fill:none;fill-opacity:1;stroke:#ffffff;stroke-width:1.39347;stroke-linecap:butt;stroke-linejoin:miter;stroke-miterlimit:4;stroke-dasharray:none;stroke-opacity:1"
       d="m 25.409456,12.607907 -9.108771,5.910807"
       id="path1394" />
    <path
       style="fill:none;fill-opacity:1;stroke:#ffffff;stroke-width:1.39347;stroke-linecap:butt;stroke-linejoin:miter;stroke-miterlimit:4;stroke-dasharray:none;stroke-opacity:1"
       d="M 0.46595106,14.168583 7.9624631,18.908844"
       id="path1396" />
    <path
       style="fill:none;fill-opacity:1;stroke:#ffffff;stroke-width:1.39347;stroke-linecap:butt;stroke-linejoin:miter;stroke-miterlimit:4;stroke-dasharray:none;stroke-opacity:1"
       d="m 10.878303,18.080876 2.95161,11.692574 -5.6513869,4.815814"
       id="path1398" />
    <path
       style="fill:none;fill-opacity:1;stroke:#ffffff;stroke-width:1.39347;stroke-linecap:butt;stroke-linejoin:miter;stroke-miterlimit:4;stroke-dasharray:none;stroke-opacity:1"
       d="M 20.063034,34.251648 13.829913,29.77345"
       id="path1400" />
    <path
       d="m 21.667505,0.91190939 h 0.316949 L 22.38064,2.4174171 22.775104,0.91190939 h 0.373793 l 0.396186,1.50550771 0.394464,-1.50550771 h 0.316949 L 23.751789,2.8411641 H 23.377996 L 22.962862,1.2598643 22.546005,2.8411641 h -0.373793 z"
       style="font-size:3.52778px;line-height:1.05;text-align:center;text-anchor:middle;fill:#ffffff;stroke-width:0.264583"
       id="path37639" />
    <path
       d="m 26.387289,1.7972995 v 0.1550294 h -1.457276 q 0.02067,0.3272843 0.19637,0.4995392 0.177423,0.1705323 0.492649,0.1705323 0.18259,0 0.353123,-0.044786 0.172255,-0.044786 0.341064,-0.1343588 v 0.2997235 q -0.170532,0.072347 -0.349677,0.1102432 -0.179145,0.037896 -0.363458,0.037896 -0.461643,0 -0.732083,-0.2687176 -0.268718,-0.2687176 -0.268718,-0.7269156 0,-0.4737009 0.254937,-0.7510313 0.25666,-0.27905293 0.690743,-0.27905293 0.389296,0 0.61495,0.25149213 0.227376,0.2497696 0.227376,0.6804065 z M 26.07034,1.7042819 Q 26.066895,1.444177 25.923923,1.2891476 25.782674,1.1341182 25.548408,1.1341182 q -0.265273,0 -0.42547,0.1498617 -0.158474,0.1498618 -0.18259,0.4220245 z"
       style="font-size:3.52778px;line-height:1.05;text-align:center;text-anchor:middle;fill:#ffffff;stroke-width:0.264583"
       id="path37641" />
    <path
       d="M 27.207222,0.26939867 V 1.2254133 H 26.914389 V 0.26939867 Z"
       style="font-size:3.52778px;line-height:1.05;text-align:center;text-anchor:middle;fill:#ffffff;stroke-width:0.264583"
       id="path37643" />
    <path
       d="m 28.995228,1.2081878 q -0.0534,-0.031006 -0.117133,-0.044786 -0.06201,-0.015503 -0.137804,-0.015503 -0.268718,0 -0.413412,0.1757 -0.142972,0.1739774 -0.142972,0.5012617 V 2.8411641 H 27.865236 V 0.91190939 h 0.318671 V 1.2116329 q 0.09991,-0.1757 0.260105,-0.26010488 0.160197,-0.0861275 0.389296,-0.0861275 0.03273,0 0.07235,0.005168 0.03962,0.003445 0.08785,0.0120578 z"
       style="font-size:3.52778px;line-height:1.05;text-align:center;text-anchor:middle;fill:#ffffff;stroke-width:0.264583"
       id="path37645" />
    <path
       d="m 30.900367,1.7972995 v 0.1550294 h -1.457276 q 0.02067,0.3272843 0.19637,0.4995392 0.177423,0.1705323 0.492649,0.1705323 0.18259,0 0.353123,-0.044786 0.172255,-0.044786 0.341064,-0.1343588 v 0.2997235 q -0.170532,0.072347 -0.349677,0.1102432 -0.179145,0.037896 -0.363458,0.037896 -0.461643,0 -0.732083,-0.2687176 -0.268718,-0.2687176 -0.268718,-0.7269156 0,-0.4737009 0.254937,-0.7510313 0.25666,-0.27905293 0.690743,-0.27905293 0.389296,0 0.614949,0.25149213 0.227377,0.2497696 0.227377,0.6804065 z M 30.583418,1.7042819 Q 30.579973,1.444177 30.437001,1.2891476 30.295752,1.1341182 30.061486,1.1341182 q -0.265273,0 -0.42547,0.1498617 -0.158474,0.1498618 -0.18259,0.4220245 z"
       style="font-size:3.52778px;line-height:1.05;text-align:center;text-anchor:middle;fill:#ffffff;stroke-width:0.264583"
       id="path37647" />
    <path
       d="M 25.351176,5.38089 V 6.545333 H 25.034227 V 5.3912253 q 0,-0.2738853 -0.106798,-0.4099667 -0.106798,-0.1360813 -0.320394,-0.1360813 -0.25666,0 -0.404799,0.1636421 -0.14814,0.1636422 -0.14814,0.4461402 V 6.545333 H 23.735425 V 4.6160783 h 0.318671 v 0.2997235 q 0.113689,-0.1739774 0.266996,-0.2601049 0.155029,-0.086127 0.356567,-0.086127 0.332452,0 0.502984,0.2067058 0.170533,0.2049833 0.170533,0.6046143 z"
       style="font-size:3.52778px;line-height:1.05;text-align:center;text-anchor:middle;fill:#ffffff;stroke-width:0.264583"
       id="path37649" />
    <path
       d="m 26.730937,4.8382871 q -0.254937,0 -0.403076,0.1998157 -0.148139,0.1980931 -0.148139,0.5443254 0,0.3462323 0.146416,0.546048 0.14814,0.1980931 0.404799,0.1980931 0.253215,0 0.401354,-0.1998157 0.14814,-0.1998156 0.14814,-0.5443254 0,-0.3427872 -0.14814,-0.5426029 -0.148139,-0.2015382 -0.401354,-0.2015382 z m 0,-0.2687176 q 0.413412,0 0.649401,0.2687176 0.23599,0.2687176 0.23599,0.7441411 0,0.4737009 -0.23599,0.7441411 -0.235989,0.2687176 -0.649401,0.2687176 -0.415134,0 -0.651123,-0.2687176 -0.234267,-0.2704402 -0.234267,-0.7441411 0,-0.4754235 0.234267,-0.7441411 0.235989,-0.2687176 0.651123,-0.2687176 z"
       style="font-size:3.52778px;line-height:1.05;text-align:center;text-anchor:middle;fill:#ffffff;stroke-width:0.264583"
       id="path37651" />
    <path
       d="m 28.455209,4.0683077 v 0.5477706 h 0.652846 v 0.2463245 h -0.652846 v 1.0473097 q 0,0.2359892 0.06373,0.3031686 0.06546,0.067179 0.26355,0.067179 h 0.325562 V 6.545333 h -0.325562 q -0.366903,0 -0.506429,-0.1360814 Q 28.136537,6.2714477 28.136537,5.9097125 V 4.8624028 H 27.903993 V 4.6160783 h 0.232544 V 4.0683077 Z"
       style="font-size:3.52778px;line-height:1.05;text-align:center;text-anchor:middle;fill:#ffffff;stroke-width:0.264583"
       id="path37653" />
    <path
       d="m 18.960519,8.3943168 v 0.2962784 q -0.134358,-0.07407 -0.27044,-0.1102431 -0.134358,-0.037896 -0.272162,-0.037896 -0.308337,0 -0.478869,0.1963705 -0.170532,0.1946481 -0.170532,0.5477706 0,0.3531225 0.170532,0.5494931 0.170532,0.1946477 0.478869,0.1946477 0.137804,0 0.272162,-0.036173 0.136082,-0.037896 0.27044,-0.1119657 v 0.2928327 q -0.132636,0.06201 -0.275607,0.09302 -0.141249,0.03101 -0.301446,0.03101 -0.435805,0 -0.692465,-0.273885 -0.25666,-0.2738854 -0.25666,-0.7389736 0,-0.4719784 0.258383,-0.7424186 0.260104,-0.2704401 0.711412,-0.2704401 0.146417,0 0.285943,0.031006 0.139527,0.029283 0.27044,0.089573 z"
       style="font-size:3.52778px;line-height:1.05;text-align:center;text-anchor:middle;fill:#ffffff;stroke-width:0.264583"
       id="path37655" />
    <path
       d="m 20.259321,8.542456 q -0.254937,0 -0.403076,0.1998156 -0.148139,0.1980932 -0.148139,0.5443255 0,0.3462323 0.146416,0.546048 0.14814,0.1980929 0.404799,0.1980929 0.253215,0 0.401354,-0.1998155 0.148139,-0.1998156 0.148139,-0.5443254 0,-0.3427872 -0.148139,-0.5426029 Q 20.512536,8.542456 20.259321,8.542456 Z m 0,-0.2687176 q 0.413412,0 0.649401,0.2687176 0.235989,0.2687176 0.235989,0.7441411 0,0.4737009 -0.235989,0.7441409 -0.235989,0.268718 -0.649401,0.268718 -0.415134,0 -0.651123,-0.268718 -0.234267,-0.27044 -0.234267,-0.7441409 0,-0.4754235 0.234267,-0.7441411 0.235989,-0.2687176 0.651123,-0.2687176 z"
       style="font-size:3.52778px;line-height:1.05;text-align:center;text-anchor:middle;fill:#ffffff;stroke-width:0.264583"
       id="path37657" />
    <path
       d="M 21.976703,9.9601137 V 10.983308 H 21.658031 V 8.3202472 h 0.318672 v 0.2928333 q 0.09991,-0.1722549 0.251492,-0.2549373 0.153307,-0.084405 0.36518,-0.084405 0.3514,0 0.570164,0.2790529 0.220486,0.2790529 0.220486,0.7338058 0,0.4547529 -0.220486,0.7338061 -0.218764,0.279053 -0.570164,0.279053 -0.211873,0 -0.36518,-0.08268 -0.151585,-0.0844 -0.251492,-0.2566595 z m 1.078315,-0.6735166 q 0,-0.3496774 -0.144694,-0.5477706 -0.142971,-0.1998156 -0.394464,-0.1998156 -0.251492,0 -0.396186,0.1998156 -0.142971,0.1980932 -0.142971,0.5477706 0,0.3496774 0.142971,0.5494931 0.144694,0.1980928 0.396186,0.1980928 0.251493,0 0.394464,-0.1980928 0.144694,-0.1998157 0.144694,-0.5494931 z"
       style="font-size:3.52778px;line-height:1.05;text-align:center;text-anchor:middle;fill:#ffffff;stroke-width:0.264583"
       id="path37659" />
    <path
       d="m 24.71211,10.428647 q -0.134359,0.34451 -0.261827,0.449585 -0.127469,0.105076 -0.341065,0.105076 h -0.253215 v -0.265273 h 0.186036 q 0.130913,0 0.203261,-0.06201 0.07235,-0.06201 0.160197,-0.292833 l 0.05684,-0.144694 -0.780315,-1.8982488 h 0.335897 L 24.620815,9.8292 25.223707,8.3202472 h 0.335897 z"
       style="font-size:3.52778px;line-height:1.05;text-align:center;text-anchor:middle;fill:#ffffff;stroke-width:0.264583"
       id="path37661" />
    <path
       d="m 27.115066,8.6165256 q -0.0534,-0.031006 -0.117133,-0.044786 -0.06201,-0.015503 -0.137804,-0.015503 -0.268718,0 -0.413412,0.1757 -0.142971,0.1739774 -0.142971,0.5012617 V 10.249502 H 25.985074 V 8.3202472 h 0.318672 v 0.2997235 q 0.09991,-0.1757 0.260105,-0.2601049 0.160197,-0.086127 0.389296,-0.086127 0.03273,0 0.07235,0.00517 0.03962,0.00345 0.08785,0.012058 z"
       style="font-size:3.52778px;line-height:1.05;text-align:center;text-anchor:middle;fill:#ffffff;stroke-width:0.264583"
       id="path37663" />
    <path
       d="m 27.447518,8.3202472 h 0.316949 v 1.9292548 h -0.316949 z m 0,-0.7510313 h 0.316949 v 0.4013539 h -0.316949 z"
       style="font-size:3.52778px;line-height:1.05;text-align:center;text-anchor:middle;fill:#ffffff;stroke-width:0.264583"
       id="path37665" />
    <path
       d="m 29.697167,9.2624814 q 0,-0.3445098 -0.142972,-0.5339901 -0.141249,-0.1894804 -0.397909,-0.1894804 -0.254937,0 -0.397908,0.1894804 -0.141249,0.1894803 -0.141249,0.5339901 0,0.3427872 0.141249,0.5322676 0.142971,0.1894804 0.397908,0.1894804 0.25666,0 0.397909,-0.1894804 0.142972,-0.1894804 0.142972,-0.5322676 z m 0.316949,0.7475866 q 0,0.492649 -0.218764,0.732083 -0.218764,0.241157 -0.670072,0.241157 -0.167087,0 -0.315226,-0.02584 -0.148139,-0.02412 -0.287666,-0.07579 v -0.308336 q 0.139527,0.07579 0.275608,0.111966 0.136082,0.03617 0.277331,0.03617 0.311781,0 0.46681,-0.163642 0.15503,-0.161919 0.15503,-0.490926 V 9.9101598 q -0.09819,0.1705322 -0.251492,0.2549372 -0.153307,0.08441 -0.366903,0.08441 -0.354845,0 -0.571887,-0.2704403 -0.217041,-0.2704401 -0.217041,-0.7165803 0,-0.4478627 0.217041,-0.7183029 0.217042,-0.2704401 0.571887,-0.2704401 0.213596,0 0.366903,0.084405 0.153306,0.084405 0.251492,0.2549373 V 8.3202472 h 0.316949 z"
       style="font-size:3.52778px;line-height:1.05;text-align:center;text-anchor:middle;fill:#ffffff;stroke-width:0.264583"
       id="path37667" />
    <path
       d="M 32.270654,9.0850589 V 10.249502 H 31.953705 V 9.0953942 q 0,-0.2738853 -0.106798,-0.4099667 -0.106798,-0.1360813 -0.320394,-0.1360813 -0.25666,0 -0.404799,0.1636421 -0.148139,0.1636422 -0.148139,0.4461402 V 10.249502 H 30.654903 V 7.5692159 h 0.318672 v 1.0507548 q 0.113688,-0.1739775 0.266995,-0.2601049 0.155029,-0.086127 0.356568,-0.086127 0.332452,0 0.502984,0.2067058 0.170532,0.2049833 0.170532,0.6046143 z"
       style="font-size:3.52778px;line-height:1.05;text-align:center;text-anchor:middle;fill:#ffffff;stroke-width:0.264583"
       id="path37669" />
    <path
       d="m 33.216334,7.7724766 v 0.5477706 h 0.652846 v 0.2463245 h -0.652846 v 1.0473097 q 0,0.2359892 0.06373,0.3031686 0.06546,0.067179 0.26355,0.067179 h 0.325562 v 0.265273 h -0.325562 q -0.366903,0 -0.506429,-0.136081 Q 32.897662,9.9756166 32.897662,9.6138814 V 8.5665717 H 32.665118 V 8.3202472 h 0.232544 V 7.7724766 Z"
       style="font-size:3.52778px;line-height:1.05;text-align:center;text-anchor:middle;fill:#ffffff;stroke-width:0.264583"
       id="path37671" />
    <path
       d="m 34.485853,9.8119745 h 0.349677 v 0.4375275 h -0.349677 z m 0,-2.134238 H 34.83553 V 8.806006 L 34.80108,9.4209559 H 34.522026 L 34.485853,8.806006 Z"
       style="font-size:3.52778px;line-height:1.05;text-align:center;text-anchor:middle;fill:#ffffff;stroke-width:0.264583"
       id="path37673" />
  </g>
</svg>
