<?xml version="1.0" encoding="UTF-8" standalone="no"?>
<!-- Created with Inkscape (http://www.inkscape.org/) -->

<svg
   width="100pt"
   height="100pt"
   viewBox="0 0 35.277779 35.277777"
   version="1.1"
   id="svg5"
   inkscape:version="1.1 (ce6663b3b7, 2021-05-25)"
   sodipodi:docname="four.svg"
   xmlns:inkscape="http://www.inkscape.org/namespaces/inkscape"
   xmlns:sodipodi="http://sodipodi.sourceforge.net/DTD/sodipodi-0.dtd"
   xmlns="http://www.w3.org/2000/svg"
   xmlns:svg="http://www.w3.org/2000/svg">
  <sodipodi:namedview
     id="namedview7"
     pagecolor="#616b6e"
     bordercolor="#eeeeee"
     borderopacity="1"
     inkscape:pageshadow="0"
     inkscape:pageopacity="0"
     inkscape:pagecheckerboard="false"
     inkscape:document-units="pt"
     showgrid="false"
     units="pt"
     width="100pt"
     showguides="true"
     showborder="true"
     inkscape:showpageshadow="false"
     borderlayer="false"
     inkscape:zoom="4.6138717"
     inkscape:cx="74.557772"
     inkscape:cy="65.34642"
     inkscape:window-width="1848"
     inkscape:window-height="1016"
     inkscape:window-x="72"
     inkscape:window-y="27"
     inkscape:window-maximized="1"
     inkscape:current-layer="layer1" />
  <defs
     id="defs2">
    <rect
       x="7.0299334"
       y="2.1848124"
       width="146.25908"
       height="105.32215"
       id="rect42896" />
    <rect
       x="8.8823437"
       y="11.176041"
       width="97.196373"
       height="45.69164"
       id="rect8110" />
    <rect
       x="71.1037"
       y="8.6469801"
       width="61.993361"
       height="52.760803"
       id="rect4602" />
  </defs>
  <g
     inkscape:label="Layer 1"
     inkscape:groupmode="layer"
     id="layer1">
    <ellipse
       style="fill:#ffffff;fill-opacity:1;stroke-width:0.352777"
       id="path1081"
       cx="11.592002"
       cy="12.883632"
       rx="5.9759226"
       ry="6.1007037" />
    <path
       style="fill:none;fill-opacity:1;stroke:#ffffff;stroke-width:1.39347;stroke-linecap:butt;stroke-linejoin:miter;stroke-miterlimit:4;stroke-dasharray:none;stroke-opacity:1"
       d="m 16.948003,9.1519511 c 7.414129,-1.5780291 3.59237,1.6937619 -4.074449,9.4061179"
       id="path1394"
       sodipodi:nodetypes="cc" />
    <path
       style="fill:none;fill-opacity:1;stroke:#ffffff;stroke-width:1.39347;stroke-linecap:butt;stroke-linejoin:miter;stroke-miterlimit:4;stroke-dasharray:none;stroke-opacity:1"
       d="M 9.5474633,23.790083 C 0.57999675,23.648327 4.472465,21.243167 7.9624631,18.908844"
       id="path1396"
       sodipodi:nodetypes="cc" />
    <path
       style="fill:none;fill-opacity:1;stroke:#ffffff;stroke-width:1.39347;stroke-linecap:butt;stroke-linejoin:miter;stroke-miterlimit:4;stroke-dasharray:none;stroke-opacity:1"
       d="M 12.873554,18.558069 8.4459264,27.213833 8.1785261,34.589264"
       id="path1398"
       sodipodi:nodetypes="ccc" />
    <path
       style="fill:none;fill-opacity:1;stroke:#ffffff;stroke-width:1.39347;stroke-linecap:butt;stroke-linejoin:miter;stroke-miterlimit:4;stroke-dasharray:none;stroke-opacity:1"
       d="M 15.718075,33.998953 8.4459264,27.213833"
       id="path1400"
       sodipodi:nodetypes="cc" />
    <path
       d="m 3.4904032,2.7130127 q -0.4225419,0 -0.5854954,0.096635 -0.1629534,0.096635 -0.1629534,0.3296965 0,0.185691 0.1212678,0.2955899 0.1231622,0.108004 0.3334859,0.108004 0.2899055,0 0.4642276,-0.2046391 Q 3.837153,3.1317651 3.837153,2.7906997 V 2.7130127 Z M 4.1857973,2.5690074 V 3.779789 H 3.837153 V 3.4576717 q -0.1193729,0.1932705 -0.2974849,0.2861159 -0.1781119,0.090951 -0.4358055,0.090951 -0.3259069,0 -0.5191771,-0.1819015 Q 2.39331,3.4690406 2.39331,3.1620818 2.39331,2.8039635 2.6320557,2.6220619 2.8726961,2.4401606 3.3482926,2.4401606 H 3.837153 V 2.406054 q 0,-0.2406405 -0.1591639,-0.3713822 Q 3.52072,1.9020353 3.2346043,1.9020353 q -0.1819016,0 -0.3543289,0.043581 -0.1724274,0.04358 -0.3315912,0.1307412 V 1.7542403 q 0.1913755,-0.073897 0.3713821,-0.1098988 0.1800067,-0.037896 0.3505394,-0.037896 0.460438,0 0.6878148,0.2387457 0.2273768,0.2387457 0.2273768,0.7238162 z"
       style="font-size:14.6667px;line-height:1.25;text-align:end;text-anchor:end;white-space:pre;shape-inside:url(#rect42896);fill:#ffffff;stroke-width:0.264583"
       id="path56034" />
    <path
       d="M 6.6679945,2.4988994 V 3.779789 H 6.3193501 V 2.5102683 q 0,-0.3012743 -0.1174782,-0.450964 -0.1174779,-0.1496898 -0.352434,-0.1496898 -0.2823263,0 -0.4452797,0.1800067 Q 5.2412047,2.2696279 5.2412047,2.5803763 V 3.779789 H 4.8906656 V 1.6576052 h 0.3505391 v 0.3296964 q 0.1250575,-0.1913755 0.2936952,-0.2861159 0.1705327,-0.09474 0.392225,-0.09474 0.3656978,0 0.5532837,0.2273768 0.1875859,0.2254821 0.1875859,0.6650769 z"
       style="font-size:14.6667px;line-height:1.25;text-align:end;text-anchor:end;white-space:pre;shape-inside:url(#rect42896);fill:#ffffff;stroke-width:0.264583"
       id="path56036" />
    <path
       d="M 8.2463686,3.9768491 Q 8.0985737,4.3558105 7.958358,4.4713934 7.8181423,4.5869767 7.5831862,4.5869767 H 7.3046495 V 4.2951764 h 0.2046394 q 0.1440053,0 0.2235872,-0.068213 0.079582,-0.068213 0.176217,-0.322117 L 7.9716215,3.7456826 7.113274,1.6576052 H 7.4827615 L 8.1459439,3.317456 8.8091263,1.6576052 h 0.3694875 z"
       style="font-size:14.6667px;line-height:1.25;text-align:end;text-anchor:end;white-space:pre;shape-inside:url(#rect42896);fill:#ffffff;stroke-width:0.264583"
       id="path56038" />
    <path
       d="m 10.482241,1.9020353 q -0.280432,0 -0.443385,0.2197976 -0.1629535,0.2179028 -0.1629535,0.5987591 0,0.3808561 0.1610585,0.6006537 0.162953,0.2179029 0.44528,0.2179029 0.278536,0 0.44149,-0.2197976 0.162953,-0.2197976 0.162953,-0.598759 0,-0.3770667 -0.162953,-0.5968643 -0.162954,-0.2216924 -0.44149,-0.2216924 z m 0,-0.2955899 q 0.454753,0 0.714342,0.2955899 0.259589,0.2955899 0.259589,0.8185567 0,0.5210717 -0.259589,0.8185566 -0.259589,0.2955898 -0.714342,0.2955898 -0.456649,0 -0.7162374,-0.2955898 Q 9.50831,3.2416637 9.50831,2.720592 q 0,-0.5229668 0.2576936,-0.8185567 0.2595884,-0.2955899 0.7162374,-0.2955899 z"
       style="font-size:14.6667px;line-height:1.25;text-align:end;text-anchor:end;white-space:pre;shape-inside:url(#rect42896);fill:#ffffff;stroke-width:0.264583"
       id="path56040" />
    <path
       d="M 13.798153,2.4988994 V 3.779789 H 13.449508 V 2.5102683 q 0,-0.3012743 -0.117478,-0.450964 -0.117478,-0.1496898 -0.352434,-0.1496898 -0.282326,0 -0.445279,0.1800067 -0.162954,0.1800067 -0.162954,0.4907551 V 3.779789 H 12.020824 V 1.6576052 h 0.350539 v 0.3296964 q 0.125057,-0.1913755 0.293695,-0.2861159 0.170533,-0.09474 0.392225,-0.09474 0.365698,0 0.553284,0.2273768 0.187586,0.2254821 0.187586,0.6650769 z"
       style="font-size:14.6667px;line-height:1.25;text-align:end;text-anchor:end;white-space:pre;shape-inside:url(#rect42896);fill:#ffffff;stroke-width:0.264583"
       id="path56042" />
    <path
       d="m 16.308772,2.6315359 v 0.1705327 h -1.603007 q 0.02274,0.3600132 0.216008,0.5494941 0.195165,0.1875859 0.541915,0.1875859 0.200849,0 0.388435,-0.049265 0.189481,-0.049265 0.375172,-0.147795 V 3.671785 q -0.187586,0.079582 -0.384646,0.1212678 -0.19706,0.041686 -0.399804,0.041686 -0.507808,0 -0.805293,-0.2955898 -0.29559,-0.2955899 -0.29559,-0.7996085 0,-0.521072 0.280432,-0.826136 0.282326,-0.3069587 0.759817,-0.3069587 0.428227,0 0.676446,0.2766418 0.250115,0.274747 0.250115,0.7484483 z M 15.960127,2.5292165 q -0.0038,-0.286116 -0.161058,-0.4566486 -0.155374,-0.1705326 -0.413068,-0.1705326 -0.2918,0 -0.468017,0.1648482 -0.174323,0.1648482 -0.20085,0.4642276 z"
       style="font-size:14.6667px;line-height:1.25;text-align:end;text-anchor:end;white-space:pre;shape-inside:url(#rect42896);fill:#ffffff;stroke-width:0.264583"
       id="path56044" />
    <path
       d="m 19.467416,1.7201338 v 0.3296964 q -0.147795,-0.075792 -0.306959,-0.1136884 -0.159164,-0.037896 -0.329696,-0.037896 -0.259589,0 -0.390331,0.079582 -0.128846,0.079582 -0.128846,0.2387457 0,0.1212676 0.09285,0.1913754 0.09285,0.068213 0.373277,0.1307417 l 0.119373,0.026527 q 0.371382,0.079582 0.526756,0.2254819 0.157269,0.1440053 0.157269,0.4035938 0,0.2955902 -0.234956,0.4680176 -0.233061,0.1724273 -0.642339,0.1724273 -0.170533,0 -0.356224,-0.034107 -0.183796,-0.032212 -0.388435,-0.09853 V 3.3420887 q 0.19327,0.1004248 0.380856,0.1515843 0.187586,0.049265 0.371382,0.049265 0.246325,0 0.378961,-0.083372 0.132637,-0.085266 0.132637,-0.2387458 0,-0.1421103 -0.09663,-0.2179026 Q 19.03161,2.927126 18.707598,2.857018 L 18.586331,2.828596 Q 18.262319,2.7603829 18.118313,2.6201672 17.974308,2.4780566 17.974308,2.2317317 q 0,-0.2993795 0.212218,-0.4623329 0.212219,-0.1629534 0.602549,-0.1629534 0.19327,0 0.363803,0.028422 0.170533,0.028422 0.314538,0.085266 z"
       style="font-size:14.6667px;line-height:1.25;text-align:end;text-anchor:end;white-space:pre;shape-inside:url(#rect42896);fill:#ffffff;stroke-width:0.264583"
       id="path56046" />
    <path
       d="M 21.951508,2.6315359 V 2.8020686 H 20.3485 q 0.02273,0.3600132 0.216009,0.5494941 0.195165,0.1875859 0.541914,0.1875859 0.200851,0 0.388435,-0.049265 0.189481,-0.049265 0.375174,-0.147795 V 3.671785 q -0.187587,0.079582 -0.384646,0.1212678 -0.197062,0.041686 -0.399804,0.041686 -0.507809,0 -0.805294,-0.2955898 -0.29559,-0.2955899 -0.29559,-0.7996085 0,-0.521072 0.280432,-0.826136 0.282327,-0.3069587 0.759817,-0.3069587 0.428226,0 0.676445,0.2766418 0.250116,0.274747 0.250116,0.7484483 z M 21.602864,2.5292165 q -0.0038,-0.286116 -0.16106,-0.4566486 -0.155374,-0.1705326 -0.413068,-0.1705326 -0.291801,0 -0.468016,0.1648482 -0.174323,0.1648482 -0.20085,0.4642276 z"
       style="font-size:14.6667px;line-height:1.25;text-align:end;text-anchor:end;white-space:pre;shape-inside:url(#rect42896);fill:#ffffff;stroke-width:0.264583"
       id="path56048" />
    <path
       d="m 24.338965,2.6315359 v 0.1705327 h -1.603007 q 0.02273,0.3600132 0.216008,0.5494941 0.195165,0.1875859 0.541915,0.1875859 0.20085,0 0.388434,-0.049265 0.189482,-0.049265 0.375174,-0.147795 V 3.671785 q -0.187587,0.079582 -0.384646,0.1212678 -0.197061,0.041686 -0.399804,0.041686 -0.507809,0 -0.805293,-0.2955898 -0.29559,-0.2955899 -0.29559,-0.7996085 0,-0.521072 0.280432,-0.826136 0.282326,-0.3069587 0.759817,-0.3069587 0.428225,0 0.676444,0.2766418 0.250116,0.274747 0.250116,0.7484483 z M 23.990321,2.5292165 q -0.0038,-0.286116 -0.16106,-0.4566486 -0.155374,-0.1705326 -0.413067,-0.1705326 -0.291801,0 -0.468017,0.1648482 -0.174323,0.1648482 -0.20085,0.4642276 z"
       style="font-size:14.6667px;line-height:1.25;text-align:end;text-anchor:end;white-space:pre;shape-inside:url(#rect42896);fill:#ffffff;stroke-width:0.264583"
       id="path56050" />
    <path
       d="M 26.675263,2.4988994 V 3.779789 H 26.326618 V 2.5102683 q 0,-0.3012743 -0.117477,-0.450964 -0.117478,-0.1496898 -0.352436,-0.1496898 -0.282326,0 -0.445278,0.1800067 -0.162954,0.1800067 -0.162954,0.4907551 V 3.779789 H 24.897934 V 1.6576052 h 0.350539 v 0.3296964 q 0.125058,-0.1913755 0.293695,-0.2861159 0.170532,-0.09474 0.392224,-0.09474 0.365699,0 0.553284,0.2273768 0.187587,0.2254821 0.187587,0.6650769 z"
       style="font-size:14.6667px;line-height:1.25;text-align:end;text-anchor:end;white-space:pre;shape-inside:url(#rect42896);fill:#ffffff;stroke-width:0.264583"
       id="path56052" />
    <path
       d="m 30.256446,2.0649887 q 0.130744,-0.2349561 0.312645,-0.3467497 0.181901,-0.1117936 0.428225,-0.1117936 0.331592,0 0.511599,0.2330613 0.180006,0.2311664 0.180006,0.6593927 V 3.779789 H 31.338383 V 2.5102683 q 0,-0.3050639 -0.108006,-0.4528588 -0.108003,-0.147795 -0.329697,-0.147795 -0.270957,0 -0.428226,0.1800067 -0.157268,0.1800067 -0.157268,0.4907551 V 3.779789 H 29.964647 V 2.5102683 q 0,-0.3069587 -0.108005,-0.4528588 -0.108003,-0.147795 -0.333486,-0.147795 -0.267169,0 -0.424437,0.1819015 -0.157268,0.1800067 -0.157268,0.4888603 V 3.779789 H 28.590912 V 1.6576052 h 0.350539 v 0.3296964 q 0.119372,-0.1951651 0.286115,-0.2880106 0.166743,-0.092846 0.396015,-0.092846 0.231166,0 0.392226,0.117478 0.162952,0.1174781 0.240639,0.3410657 z"
       style="font-size:14.6667px;line-height:1.25;text-align:end;text-anchor:end;white-space:pre;shape-inside:url(#rect42896);fill:#ffffff;stroke-width:0.264583"
       id="path56054" />
    <path
       d="M 33.267293,3.9768491 Q 33.1195,4.3558105 32.979284,4.4713934 32.839068,4.5869767 32.604112,4.5869767 H 32.325575 V 4.2951764 h 0.204639 q 0.144005,0 0.223586,-0.068213 0.07958,-0.068213 0.176218,-0.322117 L 32.992548,3.7456826 32.1342,1.6576052 h 0.369488 l 0.663184,1.6598508 0.66318,-1.6598508 h 0.369488 z"
       style="font-size:14.6667px;line-height:1.25;text-align:end;text-anchor:end;white-space:pre;shape-inside:url(#rect42896);fill:#ffffff;stroke-width:0.264583"
       id="path56056" />
    <path
       d="M 23.793259,5.6821753 H 24.1438 v 1.7413278 l 1.04025,-0.915192 h 0.445277 L 24.503814,7.50119 25.676698,8.630495 H 25.221943 L 24.1438,7.5940355 V 8.630495 h -0.350541 z"
       style="font-size:14.6667px;line-height:1.25;text-align:end;text-anchor:end;white-space:pre;shape-inside:url(#rect42896);fill:#ffffff;stroke-width:0.264583"
       id="path56058" />
    <path
       d="m 27.73067,7.4822419 v 0.1705327 h -1.603008 q 0.02273,0.3600133 0.216009,0.5494941 0.195164,0.1875859 0.541914,0.1875859 0.200851,0 0.388435,-0.049265 0.189481,-0.049265 0.375171,-0.1477949 V 8.522491 q -0.187584,0.079582 -0.384646,0.1212676 -0.197059,0.041686 -0.399804,0.041686 -0.507807,0 -0.805291,-0.2955899 -0.29559,-0.2955899 -0.29559,-0.7996087 0,-0.5210718 0.280429,-0.8261359 0.282327,-0.3069585 0.75982,-0.3069585 0.428226,0 0.676445,0.2766418 0.250116,0.274747 0.250116,0.7484485 z M 27.382025,7.3799225 q -0.0038,-0.2861159 -0.161059,-0.4566486 -0.155374,-0.1705325 -0.413068,-0.1705325 -0.291801,0 -0.468019,0.1648481 -0.17432,0.1648482 -0.200848,0.4642277 z"
       style="font-size:14.6667px;line-height:1.25;text-align:end;text-anchor:end;white-space:pre;shape-inside:url(#rect42896);fill:#ffffff;stroke-width:0.264583"
       id="path56060" />
    <path
       d="m 29.185881,8.8275548 q -0.147797,0.3789614 -0.28801,0.4945447 -0.140216,0.1155832 -0.375174,0.1155832 H 28.244162 V 9.1458825 h 0.20464 q 0.144005,0 0.223586,-0.068213 0.07958,-0.068213 0.176218,-0.3221172 l 0.06253,-0.1591636 -0.858348,-2.0880775 h 0.369488 l 0.66318,1.659851 0.663184,-1.659851 h 0.369485 z"
       style="font-size:14.6667px;line-height:1.25;text-align:end;text-anchor:end;white-space:pre;shape-inside:url(#rect42896);fill:#ffffff;stroke-width:0.264583"
       id="path56062" />
    <path
       d="m 31.952298,6.5708398 v 0.3296966 q -0.147794,-0.075792 -0.306959,-0.1136886 -0.159163,-0.037896 -0.329695,-0.037896 -0.259588,0 -0.390332,0.079582 -0.128846,0.079582 -0.128846,0.2387455 0,0.1212678 0.09285,0.1913755 0.09284,0.068213 0.373277,0.1307417 l 0.119372,0.026527 q 0.371383,0.079582 0.526757,0.2254819 0.157268,0.1440053 0.157268,0.4035939 0,0.2955898 -0.234955,0.4680175 -0.233061,0.1724274 -0.64234,0.1724274 -0.170532,0 -0.356224,-0.034107 -0.183796,-0.032212 -0.388435,-0.09853 V 8.1927945 q 0.19327,0.100425 0.380857,0.1515846 0.187584,0.049265 0.371382,0.049265 0.246325,0 0.37896,-0.083372 0.132636,-0.085266 0.132636,-0.2387457 0,-0.1421107 -0.09663,-0.2179029 -0.09474,-0.075792 -0.418753,-0.1459 L 31.071214,7.679302 Q 30.747203,7.611089 30.603195,7.4708733 30.459191,7.3287627 30.459191,7.0824377 q 0,-0.2993795 0.212219,-0.462333 0.212217,-0.1629532 0.602549,-0.1629532 0.19327,0 0.363802,0.028422 0.170532,0.028422 0.314537,0.085266 z"
       style="font-size:14.6667px;line-height:1.25;text-align:end;text-anchor:end;white-space:pre;shape-inside:url(#rect42896);fill:#ffffff;stroke-width:0.264583"
       id="path56064" />
    <path
       d="m 32.996339,8.1492142 h 0.384646 V 8.630495 H 32.996339 Z M 33.369615,7.8706775 H 33.007708 V 7.5788773 q 0,-0.1913756 0.05305,-0.314538 0.05305,-0.1231625 0.223586,-0.286116 L 33.45488,6.8095856 q 0.108006,-0.1004248 0.155374,-0.1894809 0.04927,-0.089056 0.04927,-0.1819013 0,-0.1686377 -0.125055,-0.2728524 -0.123163,-0.1042143 -0.327803,-0.1042143 -0.14969,0 -0.320222,0.066318 -0.168638,0.066318 -0.352433,0.1932702 V 5.9645016 q 0.178112,-0.108004 0.360013,-0.1610585 0.183795,-0.053055 0.37896,-0.053055 0.348644,0 0.558969,0.1837963 0.212217,0.1837965 0.212217,0.4850707 0,0.1440053 -0.06821,0.274747 -0.06821,0.1288468 -0.238747,0.2918003 l -0.16675,0.1629536 q -0.08906,0.089056 -0.126949,0.1402157 -0.036,0.049265 -0.05116,0.096635 -0.01138,0.039791 -0.01707,0.096635 -0.0057,0.056844 -0.0057,0.1553742 z"
       style="font-size:14.6667px;line-height:1.25;text-align:end;text-anchor:end;white-space:pre;shape-inside:url(#rect42896);fill:#ffffff;stroke-width:0.264583"
       id="path56066" />
  </g>
</svg>
